<svg xmlns="http://www.w3.org/2000/svg" viewBox="0 0 64 64" role="img" aria-label="Medicinator">
  <defs>
    <linearGradient id="bg" x1="10" y1="8" x2="54" y2="58" gradientUnits="userSpaceOnUse">
      <stop offset="0" stop-color="#fff7fb" />
      <stop offset="0.55" stop-color="#ffe4ef" />
      <stop offset="1" stop-color="#dff8f4" />
    </linearGradient>
    <linearGradient id="pill" x1="20" y1="20" x2="46" y2="46" gradientUnits="userSpaceOnUse">
      <stop offset="0" stop-color="#f472b6" />
      <stop offset="1" stop-color="#34d399" />
    </linearGradient>
    <filter id="soft-shadow" x="-20%" y="-20%" width="140%" height="150%">
      <feDropShadow dx="0" dy="4" stdDeviation="4" flood-color="#ec7196" flood-opacity="0.22" />
    </filter>
  </defs>

  <rect width="64" height="64" rx="18" fill="url(#bg)" />
  <circle cx="14" cy="13" r="3" fill="#fbcfe8" opacity="0.9" />
  <circle cx="51" cy="15" r="2.5" fill="#a7f3d0" opacity="0.9" />
  <circle cx="50" cy="50" r="3" fill="#fde68a" opacity="0.9" />

  <g filter="url(#soft-shadow)">
    <rect x="19" y="17" width="26" height="34" rx="13" transform="rotate(38 32 34)" fill="url(#pill)" />
    <path d="M22.8 29.2 41.2 43" stroke="#ffffff" stroke-width="4.2" stroke-linecap="round" opacity="0.78" />
  </g>

  <path
    d="M32 45.5c-6.8-4.4-11-8.2-11-13.1 0-3.5 2.5-6.2 5.9-6.2 2 0 3.8 1 5.1 2.8 1.3-1.8 3.1-2.8 5.1-2.8 3.4 0 5.9 2.7 5.9 6.2 0 4.9-4.2 8.7-11 13.1Z"
    fill="#ffffff"
    opacity="0.94"
  />
  <path
    d="M25.2 34.1h4.2l1.7-3.5 2.5 7 1.9-3.5h3.3"
    fill="none"
    stroke="#f472b6"
    stroke-width="2.5"
    stroke-linecap="round"
    stroke-linejoin="round"
  />
</svg>
